PathFileType	3	(X/Y/Z)	E:\ViconData\BIOM9541 2025\Week 7\Wed1100\Hanif high squat 2-5 Squat 01.trc
DataRate	CameraRate	NumFrames	NumMarkers	Units	OrigDataRate	OrigDataStartFrame	OrigNumFrames
200.0	200.0	20	19	mm	200.0	1	1337	
Frame#	Time	C7			CLAV			RBAK			LASI			RASI			LPSI			RPSI			LTHI			LKNE			LTIB			LANK			LHEE			LTOE			RTHI			RKNE			RTIB			RANK			RHEE			RTOE			
		X1	Y1	Z1	X2	Y2	Z2	X3	Y3	Z3	X4	Y4	Z4	X5	Y5	Z5	X6	Y6	Z6	X7	Y7	Z7	X8	Y8	Z8	X9	Y9	Z9	X10	Y10	Z10	X11	Y11	Z11	X12	Y12	Z12	X13	Y13	Z13	X14	Y14	Z14	X15	Y15	Z15	X16	Y16	Z16	X17	Y17	Z17	X18	Y18	Z18	X19	Y19	Z19	
1	0.0	327.09009	1322.4871	-1195.8279	181.40175	1244.4828	-1190.7234	350.72214	1241.9747	-1346.2748	190.76556	875.48566	-1076.1165	192.4504	889.3513	-1335.8793	365.3531	937.4128	-1159.4751	366.4207	936.3121	-1234.65	256.54135	547.51892	-997.91577	284.19519	414.11429	-998.88049	304.23904	210.92731	-954.23541	309.146	62.185745	-959.00879	329.48257	46.766094	-1016.6639	162.8756	37.846458	-927.92444	253.18518	727.90619	-1404.3936	285.56458	418.59872	-1418.8104	297.99182	330.75641	-1444.2651	304.41705	73.186882	-1445.2488	326.64716	48.227077	-1381.701	161.87746	40.250446	-1477.7441	
2	0.005	327.10602	1322.4645	-1195.8241	181.40292	1244.4941	-1190.7344	350.73871	1241.9626	-1346.2766	190.77396	875.51843	-1076.1256	192.469	889.3096	-1335.8918	365.3952	937.3613	-1159.6755	366.4954	936.4692	-1234.6504	256.53528	547.56036	-997.92261	284.17798	414.16803	-998.85779	304.24234	210.94164	-954.25385	309.17432	62.199783	-959.03497	329.0726	46.318298	-1016.2303	162.87558	37.825504	-927.96484	253.2231	727.85748	-1404.3995	285.57346	418.54932	-1418.8101	298.02103	330.70486	-1444.2668	304.44748	73.129219	-1445.2401	326.63748	48.205341	-1381.7465	161.90131	40.197598	-1477.7479	
3	0.01	327.10938	1322.4504	-1195.7805	181.40485	1244.4891	-1190.7566	350.87939	1241.3436	-1346.3796	190.77582	875.56433	-1076.1263	192.4952	889.2621	-1335.8984	365.4311	937.2936	-1159.8944	366.5885	936.6597	-1234.6727	256.49829	547.62811	-997.87463	284.15717	414.20773	-998.8399	304.22629	210.99226	-954.23474	309.18362	62.209	-959.08081	329.48471	46.60318	-1016.6505	162.86227	37.825871	-927.95959	253.20351	727.78424	-1404.3899	285.59134	418.46481	-1418.8138	298.02307	330.6145	-1444.2539	304.50217	73.012001	-1445.2516	326.67789	48.164227	-1381.8318	161.90149	40.110249	-1477.7109	
4	0.015	327.12115	1322.4606	-1195.7261	181.42273	1244.5074	-1190.731	350.87823	1241.3671	-1346.3555	190.80711	875.55914	-1076.1573	192.4811	889.2822	-1335.8925	365.4804	937.2564	-1159.9742	366.6095	936.6833	-1234.6908	256.51401	547.62134	-997.9071	284.15256	414.22052	-998.84357	304.21072	210.99049	-954.23706	309.18097	62.218021	-959.08966	329.46487	46.59219	-1016.6446	162.82204	37.866173	-927.92896	253.19067	727.79309	-1404.3893	285.55191	418.46088	-1418.8054	298.00006	330.6221	-1444.2455	304.50937	72.965919	-1445.2484	326.69058	48.148506	-1381.8752	161.8846	40.094837	-1477.6909	
5	0.02	327.12872	1322.4592	-1195.6957	181.43642	1244.526	-1190.6827	350.8891	1241.4241	-1346.3323	190.83817	875.52948	-1076.2115	192.4804	889.3284	-1335.9001	365.4775	937.275	-1159.8563	366.6021	936.6095	-1234.714	256.51434	547.58624	-997.92548	284.13766	414.18655	-998.83563	304.23413	210.9579	-954.27997	309.16235	62.218678	-959.06909	329.01953	46.306789	-1016.1992	162.82727	37.852478	-927.86285	253.19231	727.85754	-1404.4045	285.52478	418.53769	-1418.8019	297.98343	330.69055	-1444.245	304.48904	73.033722	-1445.2574	326.66345	48.171879	-1381.7552	161.88306	40.11158	-1477.6472	
6	0.025	327.14944	1322.4261	-1195.7158	181.44389	1244.5244	-1190.6067	350.89209	1241.4746	-1346.3057	190.85452	875.48566	-1076.2218	192.5203	889.3599	-1335.8997	365.4618	937.282	-1159.725	366.5689	936.4709	-1234.7124	256.49994	547.53571	-997.96521	284.13443	414.13016	-998.87354	304.25031	210.91293	-954.28839	309.13895	62.219963	-959.04486	329.09991	46.406082	-1016.2612	162.84033	37.864822	-927.82568	253.19359	727.89349	-1404.3978	285.53647	418.59064	-1418.8142	297.97867	330.73694	-1444.2395	304.49768	73.086708	-1445.2593	326.64636	48.195465	-1381.6776	161.89272	40.180435	-1477.6868	
7	0.03	327.17654	1322.4072	-1195.7224	181.4621	1244.4872	-1190.5934	350.94196	1241.4379	-1346.298	190.86877	875.46985	-1076.2056	192.5806	889.3406	-1335.9058	365.4698	937.2685	-1159.6882	366.5819	936.4402	-1234.7256	256.48514	547.51532	-997.95483	284.10815	414.11829	-998.87286	304.19547	210.91426	-954.26929	309.1452	62.176109	-959.04041	329.19937	46.456692	-1016.3517	162.88184	37.844864	-927.84918	253.23349	727.87909	-1404.4142	285.55289	418.57831	-1418.8236	298.00031	330.70953	-1444.248	304.53787	73.044647	-1445.2489	326.6785	48.147163	-1381.6901	161.91777	40.166428	-1477.6787	
8	0.035	327.21902	1322.3629	-1195.7627	181.48914	1244.448	-1190.5951	350.97137	1241.4032	-1346.2987	190.85408	875.50024	-1076.2081	192.6535	889.3093	-1335.9197	365.5007	937.235	-1159.8375	366.6156	936.455	-1234.7472	256.46069	547.51965	-997.97614	284.08282	414.13995	-998.86023	304.17792	210.9153	-954.25635	309.17062	62.144302	-959.0755	329.27438	46.440144	-1016.4142	162.91667	37.830811	-927.88824	253.27516	727.81049	-1404.4335	285.59235	418.53073	-1418.8501	298.04764	330.65222	-1444.2661	304.55481	72.984138	-1445.2513	326.6933	48.140572	-1381.7207	161.95193	40.105106	-1477.709	
9	0.04	327.24112	1322.3387	-1195.78	181.50365	1244.4435	-1190.5773	351.00681	1241.3873	-1346.2977	190.86131	875.50067	-1076.2156	192.7022	889.2848	-1335.9447	365.5114	937.2279	-1159.9122	366.6562	936.4141	-1234.7947	256.46033	547.5379	-997.98016	284.07825	414.13345	-998.86523	304.18958	210.90276	-954.29327	309.2247	62.1413	-959.10712	329.25772	46.413868	-1016.4381	162.94608	37.798782	-927.90863	253.31506	727.76978	-1404.4497	285.5856	418.50027	-1418.8472	298.04498	330.61368	-1444.2831	304.39032	72.764343	-1445.1531	326.67307	47.635124	-1382.1796	161.97592	40.075294	-1477.7092	
10	0.045	327.24652	1322.2871	-1195.7638	181.53688	1244.4178	-1190.554	350.99408	1241.3596	-1346.2855	190.87399	875.48022	-1076.2351	192.7033	889.2772	-1335.968	365.4964	937.2336	-1159.84	366.6537	936.4003	-1234.7894	256.44064	547.50366	-997.98157	284.08063	414.07526	-998.90448	304.17944	210.88414	-954.29388	309.19412	62.134308	-959.06128	329.54065	46.664085	-1016.7313	162.96077	37.777874	-927.89178	253.30937	727.78687	-1404.4602	285.56561	418.52908	-1418.8708	298.01181	330.64139	-1444.2926	304.50751	72.96769	-1445.2587	326.65726	48.15332	-1381.6599	161.94638	40.074577	-1477.688	
11	0.05	327.25003	1322.2826	-1195.7273	181.53447	1244.4124	-1190.4688	350.99335	1241.3678	-1346.2593	190.90273	875.45001	-1076.2653	192.7289	889.3118	-1335.9742	365.4601	937.2516	-1159.6604	366.5871	936.2043	-1234.7671	256.43747	547.47638	-997.9837	284.08755	414.0575	-998.89453	304.16183	210.85667	-954.27777	309.17123	62.151562	-959.03638	329.51202	46.721378	-1016.7391	162.91679	37.763451	-927.81317	253.28236	727.83453	-1404.463	285.52026	418.58469	-1418.8777	297.97006	330.68481	-1444.2897	304.49707	73.015953	-1445.2617	326.6424	48.18969	-1381.5973	161.92706	40.100018	-1477.6799	
12	0.055	327.26221	1322.298	-1195.698	181.55807	1244.4132	-1190.4117	351.01038	1241.3917	-1346.243	190.90889	875.44775	-1076.2732	192.7468	889.3368	-1335.9729	365.4874	937.2805	-1159.7034	366.6062	936.174	-1234.7858	256.47565	547.4541	-998.04352	284.07843	414.06271	-998.88605	304.1861	210.85568	-954.32526	309.20264	62.138802	-959.04486	329.50781	46.731888	-1016.7289	162.92125	37.78289	-927.78772	253.29199	727.86273	-1404.4651	285.49933	418.60684	-1418.8746	297.93973	330.71127	-1444.2906	304.49615	73.045998	-1445.2604	326.64209	48.20752	-1381.5791	161.92639	40.151142	-1477.7118	
13	0.06	327.28763	1322.2975	-1195.6648	181.55367	1244.4415	-1190.4099	351.05084	1241.4001	-1346.2255	190.91956	875.51251	-1076.277	192.7727	889.3214	-1335.9539	365.5158	937.244	-1159.8929	366.713	936.3481	-1234.8572	256.44238	547.50128	-998.01172	284.0553	414.11584	-998.86627	304.16516	210.90984	-954.30145	309.23282	62.135883	-959.08423	329.51349	46.677124	-1016.7297	162.92082	37.809387	-927.85132	253.32677	727.83521	-1404.4796	285.51044	418.56079	-1418.8889	297.94687	330.68118	-1444.295	304.52814	72.955795	-1445.2697	326.63068	48.190842	-1381.5934	161.9528	40.054199	-1477.6493	
14	0.065	327.3335	1322.2654	-1195.6896	181.57228	1244.4757	-1190.3916	351.09647	1241.3691	-1346.2139	190.90855	875.56512	-1076.2498	192.8252	889.2589	-1335.9642	365.5775	937.2072	-1160.0808	366.785	936.3973	-1234.9355	256.43719	547.55383	-998.02234	284.05618	414.14975	-998.86945	304.14368	210.93582	-954.29895	309.26834	62.128769	-959.12164	329.32236	46.438313	-1016.5396	162.93622	37.810894	-927.86536	253.35628	727.74817	-1404.4688	285.52145	418.45746	-1418.8811	297.95779	330.57751	-1444.3002	304.39203	72.670959	-1445.1523	326.70209	47.687881	-1382.1774	161.97473	39.965992	-1477.6565	
15	0.07	327.36227	1322.2413	-1195.6774	181.59875	1244.4427	-1190.3848	351.1322	1241.304	-1346.2097	190.93533	875.56287	-1076.2583	192.8619	889.2403	-1335.9586	365.6075	937.2104	-1160.0892	366.8127	936.4075	-1234.9456	256.46185	547.53674	-998.02289	284.06842	414.15952	-998.88361	304.16205	210.93892	-954.29529	309.28802	62.120411	-959.15021	329.33478	46.420437	-1016.5584	162.93344	37.826447	-927.89551	253.36578	727.72382	-1404.4851	285.52118	418.45129	-1418.8917	297.96756	330.55353	-1444.3145	304.3941	72.666969	-1445.1775	326.6814	47.678909	-1382.1708	161.99329	39.954861	-1477.6732	
16	0.075	327.39517	1322.2195	-1195.661	181.66887	1244.397	-1190.406	351.19281	1241.295	-1346.2109	190.97501	875.51691	-1076.2885	192.8915	889.3017	-1335.9509	365.6014	937.2372	-1159.8628	366.7422	936.2626	-1234.8971	256.48209	547.49408	-998.05042	284.07031	414.11649	-998.88849	304.15607	210.89413	-954.28973	309.23517	62.133701	-959.10486	329.36426	46.485111	-1016.5541	162.98213	37.771862	-927.84552	253.37425	727.7843	-1404.4951	285.51147	418.51266	-1418.8896	297.96912	330.61652	-1444.314	304.55646	72.933983	-1445.2695	326.66977	48.192562	-1381.6179	161.98589	40.004879	-1477.6466	
17	0.08	327.43243	1322.2269	-1195.6462	181.69267	1244.3762	-1190.3651	351.20312	1241.3237	-1346.2007	190.99521	875.46832	-1076.2952	192.9195	889.3621	-1335.937	365.567	937.2797	-1159.6467	366.6593	936.0775	-1234.8353	256.53683	547.43756	-998.08948	284.10333	414.04599	-998.93262	304.17731	210.83202	-954.33002	309.21283	62.128277	-959.04742	329.42264	46.590885	-1016.5828	162.99637	37.777569	-927.85486	253.39529	727.86261	-1404.5179	285.50885	418.60617	-1418.8938	297.96481	330.67642	-1444.3167	304.54565	73.027847	-1445.2546	326.65936	48.20364	-1381.5887	161.97902	40.116657	-1477.673	
18	0.085	327.4537	1322.2145	-1195.6224	181.72977	1244.3634	-1190.381	351.24359	1241.3441	-1346.1729	191.00885	875.4281	-1076.2969	192.9361	889.3846	-1335.9521	365.566	937.262	-1159.6447	366.7138	936.1199	-1234.8464	256.5231	547.4176	-998.07501	284.11597	414.0657	-998.91119	304.18417	210.83852	-954.31598	309.21198	62.117344	-959.05383	329.4343	46.617939	-1016.593	162.99675	37.754326	-927.84027	253.38641	727.87244	-1404.5339	285.51196	418.60495	-1418.9047	297.96878	330.67532	-1444.3278	304.5351	73.053596	-1445.2517	326.63138	48.161716	-1381.5707	161.98976	40.126186	-1477.7028	
19	0.09	327.46893	1322.2155	-1195.5922	181.75029	1244.3538	-1190.4075	351.28864	1241.3528	-1346.1538	191.0061	875.47778	-1076.2886	192.972	889.3215	-1335.9464	365.623	937.2024	-1159.9066	366.7853	936.2173	-1234.8711	256.52887	547.46729	-998.05048	284.10977	414.09894	-998.90558	304.15128	210.86867	-954.31946	309.22647	62.089989	-959.07959	329.42123	46.529156	-1016.5739	162.97861	37.75462	-927.86505	253.4306	727.78888	-1404.5298	285.52975	418.50122	-1418.9021	297.98315	330.61087	-1444.3258	304.38681	72.77269	-1445.1578	326.65494	47.657543	-1382.0702	161.99524	40.037914	-1477.675	
20	0.095	327.46927	1322.2317	-1195.5476	181.74364	1244.4058	-1190.3712	351.32068	1241.3676	-1346.1385	191.03801	875.54041	-1076.3044	192.9902	889.3049	-1335.9609	365.667	937.1954	-1160.163	366.8824	936.3359	-1234.9409	256.53659	547.51233	-998.06921	284.11838	414.16232	-998.90552	304.16455	210.90454	-954.33118	309.24448	62.11351	-959.08856	329.35373	46.42625	-1016.5348	162.94824	37.787495	-927.88898	253.4292	727.74634	-1404.5363	285.54932	418.44766	-1418.8965	298.00375	330.56717	-1444.3224	304.40625	72.679825	-1445.147	326.66428	47.63522	-1382.1659	161.9993	39.974384	-1477.6714	
